<svg viewBox="0 0 200 200" xmlns="http://www.w3.org/2000/svg" role="img" aria-labelledby="t">
  <title id="t">Cheerful child, air quality is good</title>
  <circle cx="100" cy="100" r="96" fill="#d9f5e3"/>
  <circle cx="44" cy="150" r="60" fill="#cfeaf5"/>
  <circle cx="156" cy="46" r="42" fill="#fdf6cf"/>

  <!-- raised arm (wave) -->
  <path d="M138 150 Q158 128 150 104" fill="none" stroke="#4caf7d" stroke-width="14" stroke-linecap="round"/>
  <circle cx="150" cy="100" r="9" fill="#f0c19a"/>

  <path d="M58 168 Q58 128 100 126 Q142 128 142 168 L142 194 L58 194 Z" fill="#4caf7d"/>
  <line x1="92" y1="138" x2="89" y2="162" stroke="#eaf9d8" stroke-width="3.5" stroke-linecap="round"/>
  <line x1="108" y1="138" x2="111" y2="162" stroke="#eaf9d8" stroke-width="3.5" stroke-linecap="round"/>

  <circle cx="100" cy="93" r="46" fill="#3a2e26"/>
  <circle cx="57" cy="104" r="9" fill="#3a2e26"/>
  <circle cx="143" cy="104" r="9" fill="#3a2e26"/>

  <circle cx="100" cy="104" r="42" fill="#f0c19a"/>
  <circle cx="72" cy="116" r="7" fill="#f2a98f" opacity=".6"/>
  <circle cx="128" cy="116" r="7" fill="#f2a98f" opacity=".6"/>

  <path d="M76 88 Q84 84 92 88" fill="none" stroke="#3a2e26" stroke-width="3" stroke-linecap="round"/>
  <path d="M108 88 Q116 84 124 88" fill="none" stroke="#3a2e26" stroke-width="3" stroke-linecap="round"/>
  <circle cx="84" cy="100" r="4.5" fill="#2b2320"/>
  <circle cx="116" cy="100" r="4.5" fill="#2b2320"/>

  <!-- big open smile, no mask needed -->
  <path d="M78 112 Q100 134 122 112 Q118 122 100 124 Q82 122 78 112 Z" fill="#7a3b2e"/>
  <path d="M84 114 Q100 122 116 114" fill="none" stroke="#fff" stroke-width="3" stroke-linecap="round" opacity=".85"/>
</svg>
