<svg viewBox="0 0 200 200" xmlns="http://www.w3.org/2000/svg" role="img" aria-labelledby="t">
  <title id="t">Child holding a mask, air quality is unhealthy for sensitive groups</title>
  <circle cx="100" cy="100" r="96" fill="#fbe3c8"/>
  <circle cx="44" cy="150" r="60" fill="#fcd9b8"/>
  <circle cx="156" cy="46" r="42" fill="#fdeecb"/>

  <!-- arm holding a mask, not worn yet -->
  <path d="M134 152 Q152 140 148 118" fill="none" stroke="#d2833f" stroke-width="13" stroke-linecap="round"/>
  <path d="M140 112 Q150 116 148 126 Q146 134 136 132 Q130 128 132 120 Q134 113 140 112 Z" fill="#eaf6fb" stroke="#0e5a6d" stroke-width="2"/>

  <path d="M58 168 Q58 128 100 126 Q142 128 142 168 L142 194 L58 194 Z" fill="#d2833f"/>
  <line x1="92" y1="138" x2="89" y2="162" stroke="#fbe9d2" stroke-width="3.5" stroke-linecap="round"/>
  <line x1="108" y1="138" x2="111" y2="162" stroke="#fbe9d2" stroke-width="3.5" stroke-linecap="round"/>

  <circle cx="100" cy="93" r="46" fill="#3a2e26"/>
  <circle cx="57" cy="104" r="9" fill="#3a2e26"/>
  <circle cx="143" cy="104" r="9" fill="#3a2e26"/>

  <circle cx="100" cy="104" r="42" fill="#f0c19a"/>

  <path d="M76 91 Q84 86 92 90" fill="none" stroke="#3a2e26" stroke-width="3" stroke-linecap="round"/>
  <path d="M108 90 Q116 86 124 91" fill="none" stroke="#3a2e26" stroke-width="3" stroke-linecap="round"/>
  <circle cx="84" cy="102" r="4.5" fill="#2b2320"/>
  <circle cx="116" cy="102" r="4.5" fill="#2b2320"/>

  <!-- flat, slightly uncertain mouth -->
  <path d="M84 120h32" fill="none" stroke="#7a3b2e" stroke-width="3.5" stroke-linecap="round"/>
</svg>
