<svg viewBox="0 0 200 200" xmlns="http://www.w3.org/2000/svg" role="img" aria-labelledby="t">
  <title id="t">Child looking content, air quality is moderate</title>
  <circle cx="100" cy="100" r="96" fill="#fdf3c8"/>
  <circle cx="44" cy="150" r="60" fill="#fdeec0"/>
  <circle cx="156" cy="46" r="42" fill="#fff8e1"/>

  <path d="M58 168 Q58 128 100 126 Q142 128 142 168 L142 194 L58 194 Z" fill="#d9a441"/>
  <line x1="92" y1="138" x2="89" y2="162" stroke="#fff3cf" stroke-width="3.5" stroke-linecap="round"/>
  <line x1="108" y1="138" x2="111" y2="162" stroke="#fff3cf" stroke-width="3.5" stroke-linecap="round"/>

  <circle cx="100" cy="93" r="46" fill="#3a2e26"/>
  <circle cx="57" cy="104" r="9" fill="#3a2e26"/>
  <circle cx="143" cy="104" r="9" fill="#3a2e26"/>

  <circle cx="100" cy="104" r="42" fill="#f0c19a"/>
  <circle cx="72" cy="116" r="6" fill="#f2a98f" opacity=".5"/>
  <circle cx="128" cy="116" r="6" fill="#f2a98f" opacity=".5"/>

  <path d="M77 90 Q84 87 92 90" fill="none" stroke="#3a2e26" stroke-width="3" stroke-linecap="round"/>
  <path d="M108 90 Q116 87 123 90" fill="none" stroke="#3a2e26" stroke-width="3" stroke-linecap="round"/>
  <circle cx="84" cy="101" r="4.5" fill="#2b2320"/>
  <circle cx="116" cy="101" r="4.5" fill="#2b2320"/>

  <!-- gentle, closed-mouth smile -->
  <path d="M84 118 Q100 124 116 118" fill="none" stroke="#7a3b2e" stroke-width="3.5" stroke-linecap="round"/>
</svg>
