<svg viewBox="0 0 400 220" xmlns="http://www.w3.org/2000/svg" role="img" aria-labelledby="t">
  <title id="t">EcoPulse</title>
  <defs>
    <linearGradient id="g" x1="0" y1="0" x2="1" y2="1">
      <stop offset="0" stop-color="#0e5a6d"/>
      <stop offset="1" stop-color="#14879e"/>
    </linearGradient>
  </defs>
  <rect width="400" height="220" fill="url(#g)"/>
  <circle cx="60" cy="170" r="90" fill="#ffffff" opacity=".06"/>
  <circle cx="350" cy="30" r="70" fill="#ffffff" opacity=".07"/>
  <!-- simple leaf-on-air-current mark -->
  <g opacity=".9">
    <path d="M200 70c-30 0-52 24-52 54 0 26 18 46 40 52-2-16 2-34 14-48 10-12 24-20 38-24-18 2-34 12-44 26 8-34 34-58 66-64-30 4-52 22-62 44 8-24 26-42 50-50-32 2-58 20-72 46 2-24 12-46 22-36Z" fill="#ffffff"/>
    <path d="M116 176h168M104 190h140" stroke="#ffffff" stroke-width="4" stroke-linecap="round" opacity=".55"/>
  </g>
</svg>
